# xmcd
#
# Track frame offsets: 
#        150
#        12939
#        27631
#        41109
#        52570
#        64086
#        76916
#        88736
#        99502
#        114708
#        126148
#        141022
#        152193
#        166377
#        179577
#        194713
#        207268
#        219506
#        233985
#        248158
#        262543
#        273769
#        288195
#        300330
#        317091
#
# Disc length: 4395 seconds
#
# Revision: 1
# Processed by: cddbd v1.5.2PL0 Copyright (c) Steve Scherf et al.
# Submitted via: ExactAudioCopy v1.1
#
DISCID=5b112919
DTITLE=Muddy Waters - Anthology [disc 1]
DYEAR=2011
DGENRE=Blues
TTITLE0=I'm Your Hoochie Cooche Man
TTITLE1=Baby Please Don't Go
TTITLE2=Rollin' and Tumblin' (Part 1)
TTITLE3=Rollin' and Tumblin' (Part 2)
TTITLE4=Gypsy Woman
TTITLE5=I Just Want to Make Love to You
TTITLE6=You're Gonna Miss Me (When I'm Dead and Gone)
TTITLE7=Standin' Here Trembling
TTITLE8=They Call Me Muddy Waters
TTITLE9=Just a Dream (On My Mind)
TTITLE10=Streamline Woman
TTITLE11=She's All Right
TTITLE12=I Feel Like Going Home
TTITLE13=Mopper's Blues
TTITLE14=Honey Bee
TTITLE15=She's Into Something
TTITLE16=I Can't Be Satisfied
TTITLE17=Rock Me
TTITLE18=When I Get to Thinking
TTITLE19=Too Young to Know
TTITLE20=I Want to Be Loved
TTITLE21=Please Have Mercy
TTITLE22=Trouble No More
TTITLE23=Sad, Sad Day 
TTITLE24=Train Fare Home Blues
EXTD=
EXTT0=
EXTT1=
EXTT2=
EXTT3=
EXTT4=
EXTT5=
EXTT6=
EXTT7=
EXTT8=
EXTT9=
EXTT10=
EXTT11=
EXTT12=
EXTT13=
EXTT14=
EXTT15=
EXTT16=
EXTT17=
EXTT18=
EXTT19=
EXTT20=
EXTT21=
EXTT22=
EXTT23=
EXTT24=
PLAYORDER=
